<?xml version="1.0" encoding="UTF-8"?>
<svg id="Layer_1" xmlns="http://www.w3.org/2000/svg" version="1.1" xmlns:xlink="http://www.w3.org/1999/xlink" viewBox="0 0 649.2 200.2">
  <!-- Generator: Adobe Illustrator 29.0.1, SVG Export Plug-In . SVG Version: 2.1.0 Build 192)  -->
  <defs>
    <style>
      .st0 {
        fill: #fff;
      }

      .st1 {
        fill: none;
      }

      .st2 {
        clip-path: url(#clippath-1);
      }
    </style>
    <clipPath id="clippath-1">
      <rect class="st1" x="-271.1" width="649.2" height="200.2"/>
    </clipPath>
  </defs>
  <g class="st2">
    <path class="st0" d="M322.5,136.2c8.8,4,18.9,6,30,6s12.2-.6,17.2-1.8c1.4-.3,2.7-.7,3.9-1v-26.7c-1.1.8-3.4,2.1-7,3.8-3.5,1.7-8.1,2.5-13.7,2.5s-9.2-1.1-13.5-3.3-7.7-5.3-10.4-9.3c-2.7-4-4-8.7-4-14.1s1.3-10,4-14c2.7-4,6.1-7.1,10.4-9.3,4.2-2.2,8.7-3.3,13.5-3.3s7.2.5,10,1.4,5,1.9,6.8,3c1.7,1.1,2.9,1.9,3.5,2.5l.4-.5v-26.6c-1.3-.4-2.7-.8-4.2-1.1-4.9-1.2-10.6-1.8-17-1.8-11.2,0-21.2,2-30,6-8.8,4-15.8,9.7-21,17.1s-7.7,16.3-7.7,26.7,2.6,19.2,7.7,26.7c5.1,7.4,12.1,13.2,21,17.2M305.9,171.2c-1.2,0-2.2.2-3.1.7s-1.5,1-2,1.5c-.4.4-.6.8-.8,1.1v-2.8h-5.8v18.9h5.8v-9.8c0-.7.2-1.4.5-2.1.3-.8.8-1.4,1.5-1.9s1.5-.8,2.4-.8,1.5.1,2,.4c.5.3.9.5,1.1.8l2.3-4.8c-.3-.2-.8-.5-1.5-.8s-1.5-.4-2.4-.4M242.9,160.4c-.5-.3-1.1-.5-1.7-.5-1,0-1.8.4-2.4,1-.7.7-1,1.5-1,2.4s.3,1.7,1,2.4,1.5,1,2.5,1,1.8-.3,2.5-1c.7-.7,1-1.5,1-2.4s-.2-1.2-.5-1.8-.8-.9-1.3-1.2M257.9,185.3l-5.2-13.6h-6.3l8,18.9h6.9l8-18.9h-6.2l-5.2,13.6ZM276.8,178.9c0-.5.2-1.1.5-1.6s.8-1,1.4-1.4c.6-.4,1.5-.6,2.5-.6s1.8.2,2.4.6c.6.4,1,.9,1.3,1.4.3.6.4,1.1.5,1.6h-8.6,0ZM286.3,172.3c-1.5-.8-3.2-1.1-5.1-1.1s-3.9.4-5.4,1.3-2.6,2-3.4,3.5c-.8,1.5-1.2,3.1-1.2,5s.4,3.9,1.3,5.5c.9,1.5,2.1,2.7,3.7,3.5,1.6.8,3.4,1.2,5.5,1.2s3-.1,4.1-.4c1.1-.3,2-.6,2.7-1.1.7-.4,1.3-.9,1.7-1.5l-2.4-3.6c-.3.3-.7.7-1.2,1.1s-1.2.7-1.9.9-1.6.4-2.6.4-2-.2-2.8-.6c-.8-.4-1.4-.9-1.8-1.6-.4-.7-.6-1.4-.7-2.3h14.2c0-.1,0-.4,0-.8,0-.4,0-.6,0-.8,0-2.1-.4-3.9-1.2-5.3-.8-1.5-1.9-2.6-3.4-3.3M323.5,180c-.9-.4-1.9-.7-2.8-.9-1.2-.3-2-.6-2.7-.9-.6-.4-1-.8-1-1.4s.3-1.1.9-1.4c.6-.3,1.3-.4,2.2-.4s1.8.2,2.6.5c.8.3,1.3.6,1.7.9l2-3.5c-.2-.2-.7-.4-1.3-.7-.7-.3-1.5-.5-2.5-.7-1-.2-2-.3-3.2-.3s-2.7.2-3.9.6-2.2,1-3,1.8c-.8.8-1.2,1.8-1.2,3s.2,1.7.5,2.4c.4.7.8,1.2,1.5,1.7.6.4,1.2.8,1.9,1.1s1.4.5,2,.6c.7.1,1.3.3,1.9.5.5.2,1,.4,1.3.8s.5.7.5,1.2-.3,1.2-1,1.5c-.6.4-1.5.6-2.6.6s-2-.2-3-.6c-.9-.4-1.6-.8-2-1.2l-2,3.9c.3.2.7.5,1.4.8s1.5.6,2.5.9c1,.2,2.2.4,3.5.4s2.1-.1,3.1-.3c1-.2,2-.5,2.9-1,.9-.5,1.6-1.1,2.1-1.9.5-.8.8-1.9.8-3.1s-.3-2.3-.9-3-1.4-1.3-2.3-1.8M372.2,171.7l-5.6,13.8-5.1-13.8h-5.8l7.8,18.9-4.3,9.6h5.9l12.9-28.5h-5.8,0ZM335.6,160.4c-.5-.3-1.1-.5-1.7-.5-1,0-1.8.4-2.4,1-.7.7-1,1.5-1,2.4s.3,1.7,1,2.4,1.5,1,2.5,1,1.8-.3,2.5-1c.7-.7,1-1.5,1-2.4s-.2-1.2-.5-1.8-.7-.9-1.3-1.2M352.4,186c-.3.2-.7.3-1.2.3s-1.1-.2-1.4-.8-.4-1.2-.4-2.1v-6.8h4.5v-4.9h-4.5v-7.8h-5.8v7.8h-3.4v4.9h3.4v8.4c0,2.1.6,3.7,1.7,4.7,1.1,1,2.6,1.5,4.3,1.5s1.8-.1,2.6-.3c.8-.2,1.4-.4,1.9-.6.5-.2.8-.4.9-.5l-2.1-4.2c0,0-.2.2-.5.4M330.9,190.6h5.8v-18.9h-5.8v18.9ZM144,169.4H38v20.8h127.2v-38.3h-21.2v17.5h0ZM81.3,80.8c.2-2.7,1.1-5.4,2.8-8.2,1.6-2.8,4-5.1,7.2-7.1,3.2-1.9,7.2-2.9,12.2-2.9s9,1,11.9,3c3,2,5.2,4.4,6.6,7.2,1.4,2.8,2.2,5.5,2.2,7.9h-42.9,0ZM151.4,95.1c0-1.9,0-3.1,0-3.7,0-10.5-2-19.3-6-26.6-4-7.3-9.6-12.8-16.8-16.6-7.2-3.8-15.8-5.7-25.6-5.7s-19.4,2.1-26.9,6.4-13.1,10.1-17,17.5-5.9,15.7-5.9,24.8,2.2,19.7,6.5,27.3c4.4,7.6,10.4,13.5,18.2,17.6,7.8,4.1,16.9,6.1,27.2,6.1s17.3-.7,22.8-2c3.7-.9,6.9-2,9.7-3.3v-26.9c-9.9,10.9-29.5,11.2-30.6,11.2h0c-.4,0-.8,0-1.1,0-.1,0-.3,0-.4,0-.2,0-.4,0-.6,0-.2,0-.4,0-.6,0-.1,0-.3,0-.5,0-.2,0-.5,0-.7,0h-.2c-3.8-.4-7.1-1.3-10.1-2.7-1.9-.9-3.6-2.1-5.1-3.3l-.3-.2-.3-.3c-3.5-3.3-5.2-7.3-6-10.4h0c0-.2-.1-.5-.2-.7-.3-1.4-.5-2.9-.6-4.5h70.6c.1-.6.2-1.8.3-3.7M238.2,190.6h5.8v-18.9h-5.8v18.9ZM278.3,45.3h-29v94.2h29V45.3ZM59.3,21.2h105.9V.4H38v38.3h21.2v-17.5h0ZM234.4,95.5c-3.1-3.8-6.9-6.7-11.6-8.7-4.7-2-9.4-3.5-14.2-4.5-5.7-1.3-10.2-2.8-13.4-4.6-3.2-1.8-4.8-4.1-4.8-7.1s1.5-5.2,4.5-6.7c3-1.5,9-2.2,13.3-2.2s9.2.8,13.1,2.5,6.7,3.1,8.2,4.4l.2-.4v-21.5c-2.7-.9-5.7-1.7-9.1-2.4-4.8-1-10-1.5-15.7-1.5s-15.8,1-21.9,3.2c-6.1,2.1-11.1,5.2-14.9,9.2s-5.7,9-5.7,15,.9,8.7,2.8,12c1.8,3.3,4.2,6.1,7.2,8.3,3,2.2,6.2,4,9.6,5.3,3.4,1.3,6.8,2.3,10.1,3,3.6.8,6.7,1.7,9.4,2.6,2.7,1,4.8,2.2,6.3,3.7,1.5,1.5,2.3,3.4,2.3,5.8s-1.6,5.8-4.8,7.7-7.5,2.9-13,2.9-10.2-1.1-14.7-3.2-9-4-11-5.8l-.2.5v24.5c2.7,1.1,7.1,2.2,10.8,3.1,5,1.3,10.9,1.9,17.5,1.9s10.3-.5,15.5-1.5,10-2.7,14.3-5.1c4.4-2.4,7.9-5.6,10.5-9.7,2.6-4.1,4-9.2,4-15.4s-1.5-11.3-4.6-15.1M200.1,178.7c0,1.5-.3,2.8-.8,3.9-.5,1.1-1.2,1.9-2.2,2.5-.9.6-2,.8-3.2.8s-2.3-.3-3.3-.8-1.7-1.4-2.2-2.5-.8-2.4-.8-3.9v-18.4h-5.7v18.7c0,2.5.5,4.7,1.5,6.5,1,1.8,2.4,3.2,4.2,4.2s3.9,1.5,6.4,1.5,4.5-.5,6.3-1.5,3.2-2.4,4.2-4.2c1-1.8,1.5-4,1.5-6.5v-18.7h-5.8v18.4h0ZM227.6,171.9c-1.2-.5-2.5-.8-3.8-.8s-2,.2-3,.6c-.9.4-1.7.8-2.3,1.4s-1,1.1-1.1,1.6v-3h-5.9v18.9h5.9v-10.3c0-.9.2-1.8.7-2.5.4-.7,1-1.3,1.7-1.8.7-.4,1.4-.6,2.2-.6,1.2,0,2.1.4,2.9,1.1.7.8,1.1,1.9,1.1,3.4v10.6h5.9v-11.6c0-1.9-.4-3.4-1.2-4.5s-1.8-2-3-2.5"/>
  </g>
</svg>